<?xml version="1.0" encoding="UTF-8"?>
<!DOCTYPE svg PUBLIC "-//W3C//DTD SVG 1.1//EN" "http://www.w3.org/Graphics/SVG/1.1/DTD/svg11.dtd">
<!-- Creator: CorelDRAW 2021 (64-Bit) -->
<svg xmlns="http://www.w3.org/2000/svg" xml:space="preserve" width="69.6886mm" height="22.0212mm" version="1.1" style="shape-rendering:geometricPrecision; text-rendering:geometricPrecision; image-rendering:optimizeQuality; fill-rule:evenodd; clip-rule:evenodd"
viewBox="0 0 6968.86 2202.12"
 xmlns:xlink="http://www.w3.org/1999/xlink"
 xmlns:xodm="http://www.corel.com/coreldraw/odm/2003">
 <defs>
  <style type="text/css">
   <![CDATA[
    .fil0 {fill:#3443A0;fill-rule:nonzero}
    .fil2 {fill:#3443A0;fill-rule:nonzero}
    .fil1 {fill:#5B5B5B;fill-rule:nonzero}
   ]]>
  </style>
 </defs>
 <g id="Слой_x0020_1">
  <metadata id="CorelCorpID_0Corel-Layer"/>
  <path class="fil0" d="M890.06 202.57c192.62,0 367.14,77.8 493.58,203.58 126.52,125.87 204.78,299.63 204.78,491.46 0,118.82 -30.58,233.59 -86.39,334.64 -55.78,100.98 -136.83,188.21 -237.81,252.03l-64.14 -101.86c83.29,-52.64 150.2,-124.69 196.31,-208.17 46.07,-83.4 71.31,-178.27 71.31,-276.64 0,-158.69 -64.56,-302.27 -168.95,-406.11 -104.47,-103.93 -248.95,-168.21 -408.69,-168.21 -159.73,0 -304.22,64.28 -408.69,168.21 -104.38,103.84 -168.95,247.42 -168.95,406.11 0,98.37 25.24,193.24 71.31,276.64 46.11,83.48 113.02,155.53 196.31,208.17l-64.13 101.86c-100.99,-63.82 -182.04,-151.05 -237.81,-252.03 -55.82,-101.05 -86.4,-215.82 -86.4,-334.64 0,-191.83 78.26,-365.59 204.79,-491.46 126.43,-125.78 300.95,-203.58 493.57,-203.58zm0 190.31l0.11 0c74.25,0 146.81,16.33 212.97,46.82 65.94,30.38 125.34,74.91 173.49,131.4l-79.94 89.83c-36.72,-43.08 -93.62,-88.61 -144,-111.83 -50.17,-23.11 -105.53,-35.5 -162.52,-35.5l-0.11 0 -0.1 0c-56.99,0 -112.36,12.39 -162.52,35.5 -50.39,23.22 -107.29,68.75 -144,111.83l-79.95 -89.83c48.16,-56.49 107.55,-101.02 173.49,-131.4 66.16,-30.49 138.72,-46.82 212.98,-46.82l0.1 0zm0 192.78c52.53,0.2 103.35,13.59 148.29,37.93 45.28,24.52 84.51,60.18 113.42,104.68l-86.63 94.13c-44.79,-68.94 -88.75,-115.59 -175.08,-116.01 -86.33,0.42 -130.29,47.07 -175.08,116.01l-86.62 -94.13c28.91,-44.5 68.13,-80.16 113.41,-104.68 44.94,-24.34 95.76,-37.73 148.29,-37.93zm0 193.16c65.95,0 119.42,53.18 119.42,118.79 0,65.61 -53.47,118.8 -119.42,118.8 -65.95,0 -119.41,-53.19 -119.41,-118.8 0,-65.61 53.46,-118.79 119.41,-118.79zm-337.6 942.41c-5.35,-2.18 -10.67,-4.4 -15.97,-6.67 -161.01,-68.99 -294.34,-181.7 -388.27,-320.75 -97.06,-143.7 -152.06,-315.49 -152.06,-496.2 0,-245.54 100.15,-467.94 262.06,-629.01 161.82,-160.98 385.22,-260.55 631.84,-260.55 246.62,0 470.02,99.57 631.84,260.55 161.92,161.07 262.06,383.47 262.06,629.01 0,180.71 -54.99,352.5 -152.06,496.2 -93.93,139.05 -227.26,251.76 -388.27,320.75 -5.29,2.27 -10.62,4.49 -15.97,6.67l72.62 -171.78 15.73 -10.06c86.91,-55.52 159.35,-129.27 215.92,-213.02 83.82,-124.09 131.31,-272.52 131.31,-428.76 0,-212.41 -86.45,-404.62 -226.22,-543.66 -139.86,-139.13 -333.23,-225.18 -546.96,-225.18 -213.73,0 -407.1,86.05 -546.96,225.18 -139.77,139.04 -226.21,331.25 -226.21,543.66 0,156.24 47.49,304.67 131.31,428.76 56.57,83.75 129,157.5 215.91,213.02l15.73 10.06 72.62 171.78z"/>
  <polygon class="fil1" points="890.06,1104.68 1169.25,1556.49 890.06,2210.17 610.88,1556.49 680.57,1443.71 876.7,2138.05 747.88,1334.77 "/>
  <path class="fil2" d="M2076.41 960.19l0 -491.73 210.74 0 0 70.25 -133.47 0 0 136.98 105.37 0 0 70.25 -105.37 0 0 144 133.47 0 0 70.25 -210.74 0zm282.37 0l0 -491.73 104.2 0 79.14 294.57 0 -294.57 68.84 0 0 491.73 -79.38 0 -95.53 -355.92 0 355.92 -77.27 0zm319.02 -117.9l0 -255.93c0,-39.57 9.83,-70.01 29.38,-91.44 19.67,-21.42 48.36,-32.08 86.17,-32.08 37.82,0 67.09,10.66 87.93,32.08 20.72,21.31 31.14,51.75 31.14,91.32l0 48 -77.27 0 0 -52.8c0,-32.19 -12.06,-48.35 -36.18,-48.35 -29.27,0 -43.9,16.16 -43.9,48.47l0 265.88c0,32.08 14.63,48.12 43.9,48.12 24.12,0 36.18,-16.04 36.18,-48.23l0 -90.86 -30.91 0 0 -70.24 108.18 0 0 156.06c0,39.57 -10.42,70.01 -31.14,91.44 -20.84,21.43 -50.11,32.08 -87.93,32.08 -37.81,0 -66.5,-10.65 -86.17,-32.08 -19.55,-21.43 -29.38,-51.87 -29.38,-91.44zm304.85 117.9l0 -491.73 77.27 0 0 491.73 -77.27 0zm157.57 0l0 -491.73 104.2 0 79.14 294.57 0 -294.57 68.84 0 0 491.73 -79.38 0 -95.53 -355.92 0 355.92 -77.27 0zm325.34 0l0 -491.73 210.74 0 0 70.25 -133.47 0 0 136.98 105.37 0 0 70.25 -105.37 0 0 144 133.47 0 0 70.25 -210.74 0zm283.07 0l0 -491.73 210.74 0 0 70.25 -133.47 0 0 136.98 105.37 0 0 70.25 -105.37 0 0 144 133.47 0 0 70.25 -210.74 0zm283.07 0l0 -491.73 116.61 0c39.57,0 68.49,9.25 86.87,27.75 18.5,18.5 27.63,46.95 27.63,85.35l0 38.75c0,50.46 -16.86,83.71 -50.69,99.75 18.49,7.73 31.72,20.37 39.57,37.7 7.84,17.45 11.82,39.81 11.82,66.97l0 75.75c0,27.28 2.35,47.18 7.03,59.71l-77.27 0c-1.76,-5.74 -3.05,-9.95 -3.63,-12.88 -0.7,-2.81 -1.41,-8.31 -2.23,-16.39 -0.82,-8.2 -1.17,-18.5 -1.17,-31.03l0 -77.15c0,-22.6 -3.98,-38.75 -12.06,-48.35 -7.96,-9.6 -20.84,-14.4 -38.4,-14.4l-26.81 0 0 200.2 -77.27 0zm77.27 -270.45l30.21 0c15.33,0 26.92,-3.98 34.65,-11.83 7.85,-7.84 11.71,-21.3 11.71,-40.27l0 -48.24c0,-17.56 -3.04,-30.44 -9.25,-38.52 -6.2,-8.07 -16.16,-12.17 -29.85,-12.17l-37.47 0 0 151.03zm229.81 270.45l0 -491.73 77.27 0 0 491.73 -77.27 0zm157.57 0l0 -491.73 104.2 0 79.14 294.57 0 -294.57 68.84 0 0 491.73 -79.38 0 -95.53 -355.92 0 355.92 -77.27 0zm319.02 -117.9l0 -255.93c0,-39.57 9.83,-70.01 29.38,-91.44 19.67,-21.42 48.36,-32.08 86.17,-32.08 37.82,0 67.09,10.66 87.93,32.08 20.72,21.31 31.14,51.75 31.14,91.32l0 48 -77.27 0 0 -52.8c0,-32.19 -12.06,-48.35 -36.18,-48.35 -29.27,0 -43.9,16.16 -43.9,48.47l0 265.88c0,32.08 14.63,48.12 43.9,48.12 24.12,0 36.18,-16.04 36.18,-48.23l0 -90.86 -30.91 0 0 -70.24 108.18 0 0 156.06c0,39.57 -10.42,70.01 -31.14,91.44 -20.84,21.43 -50.11,32.08 -87.93,32.08 -37.81,0 -66.5,-10.65 -86.17,-32.08 -19.55,-21.43 -29.38,-51.87 -29.38,-91.44zm401.68 0.47l0 -30.09 79.38 0 0 34.89c0,31.96 12.29,48 36.88,48 24.58,0 36.88,-16.04 36.88,-48.12 0,-13.69 -2.7,-26.69 -8.2,-38.75 -5.5,-12.18 -12.53,-23.18 -21.19,-32.9 -8.55,-9.72 -18.15,-19.43 -28.57,-29.15 -10.54,-9.72 -21.31,-19.9 -32.43,-30.56 -11,-10.65 -21.07,-22.01 -30.09,-33.83 -8.9,-11.95 -16.27,-26.11 -22.01,-42.62 -5.74,-16.51 -8.55,-34.3 -8.55,-53.27 0,-39.57 10.54,-70.01 31.5,-91.44 21.07,-21.42 49.29,-32.08 84.88,-32.08 35.47,0 62.87,10.66 82.19,32.08 19.32,21.31 29.03,51.75 29.03,91.2l0 15.81 -73.17 0 0 -20.61c0,-32.19 -12.88,-48.23 -38.75,-48.23 -12.76,0 -22.36,3.86 -28.8,11.47 -6.44,7.73 -9.6,20.02 -9.6,37 0,13.7 2.81,26.69 8.43,38.75 5.62,12.18 12.76,23.07 21.54,32.9 8.9,9.72 18.61,19.44 29.38,29.15 10.78,9.72 21.55,19.91 32.2,30.56 10.77,10.65 20.61,22.01 29.39,33.84 8.9,11.94 16.04,26.1 21.66,42.61 5.62,16.51 8.43,34.31 8.43,53.27 0,39.46 -9.84,69.9 -29.51,91.21 -19.67,21.31 -47.41,31.96 -83.24,31.96 -35.71,0 -64.28,-10.65 -85.58,-31.96 -21.31,-21.31 -32.08,-51.63 -32.08,-91.09zm295.6 0.23l0 -374.53 77.27 0 0 379.69c0,32.08 13.46,48.12 40.27,48.12 26.58,0 39.81,-16.04 39.81,-48.12l0 -379.69 77.27 0 0 374.53c0,39.58 -10.3,70.02 -31.02,91.44 -20.73,21.43 -49.88,32.08 -87.81,32.08 -37.82,0 -66.62,-10.65 -86.29,-32.08 -19.67,-21.42 -29.5,-51.86 -29.5,-91.44zm307.89 117.2l0 -491.73 116.61 0c39.57,0 68.49,9.25 86.87,27.75 18.5,18.5 27.63,46.95 27.63,85.35l0 38.75c0,50.46 -16.86,83.71 -50.69,99.75 18.49,7.73 31.72,20.37 39.57,37.7 7.84,17.45 11.82,39.81 11.82,66.97l0 75.75c0,27.28 2.35,47.18 7.03,59.71l-77.27 0c-1.76,-5.74 -3.05,-9.95 -3.63,-12.88 -0.7,-2.81 -1.41,-8.31 -2.23,-16.39 -0.82,-8.2 -1.17,-18.5 -1.17,-31.03l0 -77.15c0,-22.6 -3.98,-38.75 -12.06,-48.35 -7.96,-9.6 -20.84,-14.4 -38.4,-14.4l-26.81 0 0 200.2 -77.27 0zm77.27 -270.45l30.21 0c15.33,0 26.92,-3.98 34.65,-11.83 7.85,-7.84 11.71,-21.3 11.71,-40.27l0 -48.24c0,-17.56 -3.04,-30.44 -9.25,-38.52 -6.2,-8.07 -16.16,-12.17 -29.85,-12.17l-37.47 0 0 151.03zm208.03 -221.28l77.27 0 59.36 403.69 59.36 -403.69 77.27 0 -75.75 491.73 -121.76 0 -75.75 -491.73zm327.45 491.73l0 -491.73 210.74 0 0 70.25 -133.47 0 0 136.98 105.37 0 0 70.25 -105.37 0 0 144 133.47 0 0 70.25 -210.74 0zm257.78 -491.73l77.27 0 59.83 224.21 59.59 -224.21 77.27 0 -101.85 328.87 0 162.86 -77.28 0 0 -162.86 -94.83 -328.87zm-4617.24 1075.84l0 -446.57 70.17 0 0 382.77 115.47 0 0 63.8 -185.64 0zm220.18 0l71.02 -446.57 108.03 0 71.03 446.57 -70.18 0 -12.23 -81.02 -85.38 0 -12.12 81.02 -70.17 0zm91.44 -141.63l67.09 0 -33.6 -223.18 -33.49 223.18zm209.02 141.63l0 -446.57 105.9 0c35.94,0 62.2,8.4 78.89,25.2 16.7,16.8 25.1,42.63 25.1,77.51l0 15.95c0,45.61 -15.1,75.6 -45.4,89.95 34.98,13.5 52.41,45.3 52.41,95.59l0 36.47c0,34.45 -9.03,60.71 -27.11,78.79 -18.07,18.07 -44.55,27.11 -79.42,27.11l-110.37 0zm70.17 -63.8l40.2 0c12.22,0 21.37,-3.29 27.32,-9.99 6.06,-6.59 9.04,-17.97 9.04,-33.92l0 -39.02c0,-20.31 -3.51,-34.45 -10.42,-42.43 -6.91,-7.86 -18.5,-11.8 -34.66,-11.8l-31.48 0 0 137.16zm0 -200.95l27.44 0c13.93,0 24.45,-3.62 31.47,-10.74 7.12,-7.13 10.63,-19.25 10.63,-36.26l0 -24.99c0,-15.95 -2.76,-27.64 -8.4,-34.98 -5.63,-7.33 -14.67,-11.06 -27.11,-11.06l-34.03 0 0 118.03zm205.52 157.68l0 -232.43c0,-35.73 9.25,-63.37 27.64,-82.94 18.4,-19.45 44.77,-29.24 79,-29.24 34.35,0 60.61,9.79 79,29.24 18.29,19.57 27.44,47.21 27.44,82.94l0 232.43c0,35.72 -9.15,63.37 -27.44,82.93 -18.39,19.46 -44.65,29.24 -79,29.24 -34.23,0 -60.6,-9.78 -79,-29.24 -18.39,-19.56 -27.64,-47.21 -27.64,-82.93zm70.17 4.15c0,29.45 12.23,44.23 36.58,44.23 24.13,0 36.15,-14.78 36.15,-44.23l0 -241.05c0,-29.24 -12.02,-43.91 -36.15,-43.91 -24.35,0 -36.58,14.67 -36.58,43.91l0 241.05zm210.72 102.92l0 -446.57 105.9 0c35.94,0 62.2,8.4 78.89,25.2 16.8,16.8 25.1,42.63 25.1,77.51l0 35.19c0,45.83 -15.31,76.03 -46.04,90.59 16.8,7.02 28.81,18.5 35.94,34.24 7.12,15.84 10.74,36.15 10.74,60.82l0 68.79c0,24.78 2.12,42.85 6.37,54.23l-70.17 0c-1.6,-5.21 -2.77,-9.04 -3.3,-11.7 -0.63,-2.55 -1.27,-7.55 -2.02,-14.88 -0.74,-7.44 -1.06,-16.8 -1.06,-28.18l0 -70.07c0,-20.52 -3.62,-35.19 -10.95,-43.91 -7.23,-8.72 -18.93,-13.08 -34.88,-13.08l-24.35 0 0 181.82 -70.17 0zm70.17 -245.61l27.44 0c13.93,0 24.45,-3.62 31.47,-10.74 7.12,-7.13 10.63,-19.36 10.63,-36.58l0 -43.81c0,-15.95 -2.76,-27.64 -8.4,-34.98 -5.63,-7.33 -14.67,-11.06 -27.11,-11.06l-34.03 0 0 137.17zm190.2 245.61l71.02 -446.57 108.03 0 71.03 446.57 -70.18 0 -12.23 -81.02 -85.38 0 -12.12 81.02 -70.17 0zm91.44 -141.63l67.09 0 -33.6 -223.18 -33.49 223.18zm164.35 -241.15l0 -63.79 216.91 0 0 63.79 -73.37 0 0 382.78 -70.17 0 0 -382.78 -73.37 0zm264.31 275.71l0 -232.43c0,-35.73 9.25,-63.37 27.64,-82.94 18.4,-19.45 44.77,-29.24 79,-29.24 34.35,0 60.61,9.79 79,29.24 18.29,19.57 27.44,47.21 27.44,82.94l0 232.43c0,35.72 -9.15,63.37 -27.44,82.93 -18.39,19.46 -44.65,29.24 -79,29.24 -34.23,0 -60.6,-9.78 -79,-29.24 -18.39,-19.56 -27.64,-47.21 -27.64,-82.93zm70.17 4.15c0,29.45 12.23,44.23 36.58,44.23 24.13,0 36.15,-14.78 36.15,-44.23l0 -241.05c0,-29.24 -12.02,-43.91 -36.15,-43.91 -24.35,0 -36.58,14.67 -36.58,43.91l0 241.05zm210.72 102.92l0 -446.57 105.9 0c35.94,0 62.2,8.4 78.89,25.2 16.8,16.8 25.1,42.63 25.1,77.51l0 35.19c0,45.83 -15.31,76.03 -46.04,90.59 16.8,7.02 28.81,18.5 35.94,34.24 7.12,15.84 10.74,36.15 10.74,60.82l0 68.79c0,24.78 2.12,42.85 6.37,54.23l-70.17 0c-1.6,-5.21 -2.77,-9.04 -3.3,-11.7 -0.63,-2.55 -1.27,-7.55 -2.02,-14.88 -0.74,-7.44 -1.06,-16.8 -1.06,-28.18l0 -70.07c0,-20.52 -3.62,-35.19 -10.95,-43.91 -7.23,-8.72 -18.93,-13.08 -34.88,-13.08l-24.35 0 0 181.82 -70.17 0zm70.17 -245.61l27.44 0c13.93,0 24.45,-3.62 31.47,-10.74 7.12,-7.13 10.63,-19.36 10.63,-36.58l0 -43.81c0,-15.95 -2.76,-27.64 -8.4,-34.98 -5.63,-7.33 -14.67,-11.06 -27.11,-11.06l-34.03 0 0 137.17zm179.57 -200.96l70.18 0 54.33 203.61 54.12 -203.61 70.18 0 -92.51 298.67 0 147.9 -70.17 0 0 -147.9 -86.13 -298.67zm396.9 446.57l0 -446.57 105.9 0c35.94,0 62.2,8.4 78.89,25.2 16.8,16.8 25.1,42.63 25.1,77.51l0 35.19c0,45.83 -15.31,76.03 -46.04,90.59 16.8,7.02 28.81,18.5 35.94,34.24 7.12,15.84 10.74,36.15 10.74,60.82l0 68.79c0,24.78 2.12,42.85 6.37,54.23l-70.17 0c-1.6,-5.21 -2.77,-9.04 -3.3,-11.7 -0.63,-2.55 -1.27,-7.55 -2.02,-14.88 -0.74,-7.44 -1.06,-16.8 -1.06,-28.18l0 -70.07c0,-20.52 -3.62,-35.19 -10.95,-43.91 -7.23,-8.72 -18.93,-13.08 -34.88,-13.08l-24.35 0 0 181.82 -70.17 0zm70.17 -245.61l27.44 0c13.93,0 24.45,-3.62 31.47,-10.74 7.12,-7.13 10.63,-19.36 10.63,-36.58l0 -43.81c0,-15.95 -2.76,-27.64 -8.4,-34.98 -5.63,-7.33 -14.67,-11.06 -27.11,-11.06l-34.03 0 0 137.17zm208.7 245.61l0 -446.57 191.39 0 0 63.79 -121.22 0 0 124.41 95.7 0 0 63.79 -95.7 0 0 130.78 121.22 0 0 63.8 -191.39 0zm246.23 -106.65l0 -27.32 72.09 0 0 31.68c0,29.03 11.17,43.6 33.5,43.6 22.32,0 33.49,-14.57 33.49,-43.7 0,-12.44 -2.45,-24.25 -7.44,-35.2 -5,-11.05 -11.38,-21.05 -19.25,-29.87 -7.76,-8.83 -16.48,-17.65 -25.94,-26.48 -9.57,-8.82 -19.35,-18.08 -29.46,-27.75 -9.99,-9.68 -19.13,-19.99 -27.32,-30.73 -8.08,-10.84 -14.78,-23.71 -19.99,-38.7 -5.21,-14.99 -7.76,-31.16 -7.76,-48.38 0,-35.94 9.57,-63.58 28.6,-83.04 19.14,-19.46 44.76,-29.14 77.09,-29.14 32.21,0 57.09,9.68 74.64,29.14 17.54,19.35 26.37,46.99 26.37,82.83l0 14.35 -66.46 0 0 -18.71c0,-29.24 -11.69,-43.81 -35.19,-43.81 -11.59,0 -20.31,3.51 -26.16,10.42 -5.85,7.02 -8.72,18.18 -8.72,33.6 0,12.44 2.55,24.24 7.66,35.19 5.1,11.06 11.59,20.95 19.56,29.88 8.08,8.83 16.91,17.65 26.69,26.48 9.78,8.82 19.56,18.07 29.24,27.75 9.78,9.67 18.71,19.99 26.69,30.73 8.08,10.84 14.56,23.71 19.67,38.7 5.1,14.99 7.65,31.15 7.65,48.38 0,35.83 -8.93,63.48 -26.79,82.83 -17.86,19.35 -43.06,29.02 -75.6,29.02 -32.43,0 -58.37,-9.67 -77.72,-29.02 -19.35,-19.35 -29.14,-46.89 -29.14,-82.73zm271.65 106.65l0 -446.57 191.39 0 0 63.79 -121.22 0 0 124.41 95.7 0 0 63.79 -95.7 0 0 130.78 121.22 0 0 63.8 -191.39 0zm238.58 0l71.02 -446.57 108.03 0 71.03 446.57 -70.18 0 -12.23 -81.02 -85.38 0 -12.12 81.02 -70.17 0zm91.44 -141.63l67.09 0 -33.6 -223.18 -33.49 223.18zm209.02 141.63l0 -446.57 105.9 0c35.94,0 62.2,8.4 78.89,25.2 16.8,16.8 25.1,42.63 25.1,77.51l0 35.19c0,45.83 -15.31,76.03 -46.04,90.59 16.8,7.02 28.81,18.5 35.94,34.24 7.12,15.84 10.74,36.15 10.74,60.82l0 68.79c0,24.78 2.12,42.85 6.37,54.23l-70.17 0c-1.6,-5.21 -2.77,-9.04 -3.3,-11.7 -0.63,-2.55 -1.27,-7.55 -2.02,-14.88 -0.74,-7.44 -1.06,-16.8 -1.06,-28.18l0 -70.07c0,-20.52 -3.62,-35.19 -10.95,-43.91 -7.23,-8.72 -18.93,-13.08 -34.88,-13.08l-24.35 0 0 181.82 -70.17 0zm70.17 -245.61l27.44 0c13.93,0 24.45,-3.62 31.47,-10.74 7.12,-7.13 10.63,-19.36 10.63,-36.58l0 -43.81c0,-15.95 -2.76,-27.64 -8.4,-34.98 -5.63,-7.33 -14.67,-11.06 -27.11,-11.06l-34.03 0 0 137.17zm202.96 138.54l0 -232.43c0,-35.94 8.93,-63.58 26.68,-83.04 17.87,-19.46 43.92,-29.14 78.26,-29.14 34.34,0 60.93,9.68 79.85,29.14 18.82,19.35 28.29,46.99 28.29,82.93l0 43.6 -70.18 0 0 -47.96c0,-29.24 -12.02,-43.91 -36.15,-43.91 -24.35,0 -36.58,14.67 -36.58,44.02l0 241.47c0,29.13 12.23,43.7 36.58,43.7 24.13,0 36.15,-14.57 36.15,-43.7l0 -64.12 70.18 0 0 59.44c0,35.94 -9.47,63.69 -28.29,83.04 -18.92,19.46 -45.51,29.13 -79.85,29.13 -34.34,0 -60.39,-9.67 -78.26,-29.13 -17.75,-19.46 -26.68,-47.1 -26.68,-83.04zm274.3 107.07l0 -446.57 70.17 0 0 191.39 79.75 0 0 -191.39 70.17 0 0 446.57 -70.17 0 0 -191.39 -79.75 0 0 191.39 -70.17 0z"/>
 </g>
</svg>
