<svg width="180" height="49" viewBox="0 0 180 49" fill="none" xmlns="http://www.w3.org/2000/svg">
<path d="M10.4403 19.5381L7.06348 31.9673H14.1549L17.5036 19.5381H10.4403Z" fill="#EF3940"/>
<path d="M13.9579 7.53168L13.0574 10.7447H20.1489L23.0755 0.344727H13.0293V0.45747C15.4775 2.09215 13.9579 7.53168 13.9579 7.53168Z" fill="#EF3940"/>
<path d="M36.8079 0.344727L27.9155 31.9673H34.9788L43.8994 0.344727H36.8079Z" fill="#EF3940"/>
<path d="M70.0985 0.344727H59.6864C53.4955 0.344727 49.6966 3.21951 48.0363 9.10999L41.4795 31.9673H48.1488L55.6623 7.19347H69.4231L66.8623 16.156H57.1819L55.2684 23.0048H64.9487L62.4442 31.9673H69.5356L76.205 8.32084C77.021 5.47424 76.9085 3.38862 75.8954 2.12033C74.9386 0.936598 72.9688 0.344727 70.0985 0.344727Z" fill="white"/>
<path d="M100.209 19.5382L90.7535 24.9778L86.3635 19.8201L91.8509 0.373047H88.052H84.7877H81.8048V0.485782C84.2811 2.12046 82.7334 7.56 82.7334 7.56H82.7615L79.5254 19.0873C78.9626 21.1166 79.4691 23.1176 81.0731 25.2314L89.4871 32.8693L102.291 24.8932C105.246 22.6667 107.103 20.4401 107.694 18.3263L112.731 0.429419H105.64L100.209 19.5382Z" fill="white"/>
<path d="M134.85 19.5382L125.395 24.9778L121.005 19.8201L126.492 0.373047H122.693H119.429H116.446V0.485782C118.922 2.12046 117.374 7.56 117.374 7.56H117.403L114.166 19.0873C113.604 21.1166 114.11 23.1176 115.714 25.2314L124.128 32.8693L136.932 24.8932C139.887 22.6667 141.744 20.4401 142.335 18.3263L147.372 0.429419H140.281L134.85 19.5382Z" fill="white"/>
<path d="M179.171 2.14852C178.214 0.964784 176.273 0.344727 173.402 0.344727H162.99C156.799 0.344727 153 3.21951 151.34 9.10999L147.147 23.963C146.331 26.8096 146.444 28.8952 147.457 30.1635C148.414 31.3473 150.355 31.9673 153.226 31.9673H163.638C169.828 31.9673 173.627 29.0925 175.288 23.202L179.481 8.34902C180.269 5.47424 180.156 3.38862 179.171 2.14852ZM167.634 25.1186H153.873L158.938 7.19347H172.699L167.634 25.1186Z" fill="white"/>
<path d="M5.66355 13.1562L0 16.5688L4.45794 20.1562H24.4206L30 16.8021L25.486 13.1562H5.66355Z" fill="#EF3940"/>
<path d="M19.8107 47.8626C20.1765 48.2853 20.7112 48.539 21.3866 48.5672H27.7182L27.9433 46.4252H22.2026C21.9494 46.397 21.6398 46.2279 21.6117 45.6078V44.9596H21.7243L28.084 44.9878L28.281 43.0149H21.7524L22.0057 42.0848C22.1182 41.7748 22.4278 41.6339 22.9624 41.6339H28.3936L28.5905 39.6328H22.4559C20.5142 39.7174 19.4167 41.1829 19.1353 44.0859C18.9946 45.8897 19.2197 47.158 19.8107 47.8626Z" fill="white"/>
<path d="M50.9625 39.6895H47.9233L45.9816 41.7751L44.4901 39.6895H41.2821L44.5745 44.1425L44.4901 44.2271L40.269 48.5956H43.5052L45.5595 46.4818L47.1916 48.5956H50.3434L46.9946 44.0016L47.0509 43.9453L50.9625 39.6895Z" fill="white"/>
<path d="M69.676 39.6611H63.4288L62.5283 48.5955H65.0328L65.3142 45.7489H69.1976C71.0268 45.6362 72.0398 44.6497 72.2368 42.705C72.3494 41.7468 72.1805 41.014 71.7584 40.5067C71.3363 39.9712 70.6328 39.6893 69.676 39.6611ZM70.0981 42.705C70.0137 43.2405 69.676 43.5224 69.1414 43.5224H65.6238L65.7926 41.6904H69.2821C69.6198 41.7468 69.8449 41.8595 69.9856 42.0286C70.0981 42.2259 70.1544 42.4232 70.0981 42.705Z" fill="white"/>
<path d="M91.3437 39.6328H85.1246L84.2241 48.5672H86.7286L87.01 45.7206H89.6271L90.8653 48.5954H93.6512L92.413 45.6642L92.4975 45.6079C93.4542 44.8751 93.9608 43.8886 93.9889 42.6485C94.0733 40.9293 93.201 39.971 91.3437 39.6328ZM91.7939 42.7049C91.7095 43.2404 91.3718 43.5222 90.809 43.5504H87.3196L87.4884 41.7184H90.9779C91.3155 41.7748 91.5407 41.8875 91.6814 42.0566C91.7939 42.2257 91.8221 42.423 91.7939 42.7049Z" fill="white"/>
<path d="M107.047 47.8626C107.412 48.2853 107.947 48.539 108.622 48.5672H114.954L115.179 46.4252H109.438C109.185 46.397 108.876 46.2279 108.848 45.6078V44.9596H108.96L115.32 44.9878L115.517 43.0149H108.988L109.242 42.0848C109.354 41.7748 109.664 41.6339 110.198 41.6339H115.629L115.826 39.6328H109.692C107.75 39.7174 106.653 41.1829 106.371 44.0859C106.23 45.8897 106.456 47.158 107.047 47.8626Z" fill="white"/>
<path d="M128.574 44.4247C128.996 44.9038 129.7 45.1575 130.713 45.1575H133.105C133.611 45.1575 133.977 45.1856 134.202 45.242C134.371 45.2984 134.596 45.4111 134.652 45.8057V45.8339V45.8621C134.54 46.2285 134.343 46.4257 134.061 46.4821C133.808 46.5103 133.471 46.5385 133.02 46.5385H127.871L127.646 48.6523H133.048C134.174 48.6241 134.99 48.3986 135.469 48.0041C135.947 47.5813 136.256 46.9049 136.425 46.003C136.51 45.1293 136.369 44.4247 136.003 43.9174C135.637 43.4382 134.962 43.1564 134.005 43.1H131.529C131.107 43.1 130.825 43.0718 130.628 43.0436C130.375 42.9873 130.234 42.79 130.178 42.4518V42.4236L130.206 42.3954C130.375 42.1418 130.544 41.9727 130.769 41.9445C130.966 41.9163 131.219 41.8881 131.585 41.8881H136.538L136.763 39.7461H131.501C130.403 39.8025 129.615 40.0279 129.109 40.4507C128.602 40.8735 128.293 41.5499 128.124 42.4518C127.983 43.2409 128.152 43.9174 128.574 44.4247Z" fill="white"/>
<path d="M157.277 41.8031L157.502 39.6611H152.24C151.142 39.7175 150.354 39.943 149.848 40.3657C149.341 40.7885 149.032 41.4649 148.863 42.3668C148.779 43.2405 148.947 43.9169 149.37 44.4243C149.792 44.9034 150.495 45.157 151.508 45.157H153.9C154.407 45.157 154.773 45.1852 154.998 45.2416C155.167 45.298 155.392 45.4107 155.448 45.8053V45.8335V45.8616C155.335 46.228 155.138 46.4253 154.857 46.4817C154.604 46.5099 154.266 46.5381 153.816 46.5381H148.666L148.441 48.6519H153.844C154.97 48.6237 155.786 48.3982 156.264 48.0037C156.742 47.5809 157.052 46.9045 157.221 46.0026C157.305 45.1289 157.164 44.4243 156.799 43.917C156.433 43.4378 155.757 43.156 154.801 43.0996H152.324C151.902 43.0996 151.621 43.0714 151.424 43.0432C151.171 42.9869 151.03 42.7896 150.974 42.4514V42.4232L151.002 42.395C151.171 42.1413 151.339 41.9722 151.565 41.9441C151.761 41.9159 152.015 41.8877 152.381 41.8877H157.277V41.8031Z" fill="white"/>
</svg>
