<?xml version="1.0" encoding="utf-8"?>
<!-- Generator: Adobe Illustrator 21.0.0, SVG Export Plug-In . SVG Version: 6.00 Build 0)  -->
<svg version="1.1" xmlns="http://www.w3.org/2000/svg" xmlns:xlink="http://www.w3.org/1999/xlink" x="0px" y="0px"
	 viewBox="0 0 213.7 39.3" style="enable-background:new 0 0 213.7 39.3;" xml:space="preserve">
<style type="text/css">
	.st0{fill:#2A3678;}
	.st1{fill:#29377B;}
	.st2{fill:#0075B6;}
	.st3{fill:#29367B;}
</style>
<g id="Layer_1">
	<g id="Слой_2">
		<g id="Слой_1-2">
			<rect x="16.1" y="1.3" class="st0" width="6.4" height="1"/>
			<polygon class="st0" points="11.3,3.6 11.3,0 10.9,0 8,1.8 10.9,3.6 			"/>
			<polygon class="st0" points="14.1,3.6 14.1,0 13.7,0 10.9,1.8 13.8,3.6 			"/>
			<polygon class="st0" points="17,3.6 17,0 16.6,0 13.8,1.8 16.6,3.6 			"/>
			<polygon class="st0" points="27.8,3.6 27.8,0 27.4,0 24.5,1.8 27.4,3.6 			"/>
			<polygon class="st0" points="30.6,3.6 30.6,0 30.2,0 27.4,1.8 30.3,3.6 			"/>
			<polygon class="st0" points="33.5,3.6 33.5,0 33.1,0 30.3,1.8 33.2,3.6 			"/>
			<path class="st1" d="M29,18.3l0.2-0.3l0.3-0.2l2.8-1.3l0.6-0.3v-3.5c-2.6-0.7-4.9-2-9.5,0l0.1,16.1L29,18.3z"/>
			<path class="st1" d="M35.5,5H6.9C5.3,5,4,6.3,4,7.9c0,0,0,0,0,0v21.3h3.7V10.7c0,0,7-3.2,11.8-0.1v2.3c-1.3-0.9-6.8-1.9-9.9,0.3
				h0.1l0.1,13v1v1.5l4.9-10.3l0.2-0.4l0.4-0.2l2.8-1.3l1.5-0.7v13.4h2V10.7c2-0.9,4.2-1.3,6.4-1.4c2.4,0,4.8,0.5,7,1.3v18.6h3.6
				V7.9C38.5,6.3,37.2,5,35.5,5C35.5,5,35.5,5,35.5,5"/>
			<path class="st2" d="M32.7,31.1V17.5l-2.8,1.3l-6.5,12.4h-5.1V17.5l-2.8,1.3L9.7,31.1H4v1.3c0,1.7,1.3,3,3,3h28.5
				c1.7,0,3-1.3,3-3v-1.3H32.7z"/>
			<path class="st0" d="M37.3,1.2h-4.7v1.1h4.7c2.2,0,4,1.8,4,4v28c0,2.2-1.8,4-4,4H5c-2.2,0-4-1.8-4-4V6.3c0-2.2,1.8-4,4-4h0.7v-1
				H5c-2.8,0-5,2.2-5,5v28.1c0,2.8,2.2,5,5,5h32.3c2.8,0,5-2.2,5-5V6.3C42.3,3.5,40.1,1.3,37.3,1.2"/>
			<rect x="15.9" y="1.2" class="st0" width="6.9" height="1.1"/>
		</g>
	</g>
	<g>
		<path class="st3" d="M59.5,20.5v-6H54v6h-2.8V7.1H54v5.1h5.6V7.1h2.8v13.4H59.5z"/>
		<path class="st3" d="M69.2,20.5v-5.7c-1.6-2.5-3.2-5.1-4.9-7.7h3.1c0.8,1.3,1.7,2.7,2.5,4.1c0.2,0.8,0.5,1.9,0.6,2.6
			c0.2-0.7,0.5-1.7,0.7-2.6c0.9-1.3,1.7-2.7,2.8-4.1h3l-5.1,7.7v5.7H69.2z"/>
		<path class="st3" d="M79.1,20.5V7.1H84c4.2,0,7,0.7,7,6.6c0,6-2.4,6.8-6.7,6.8H79.1z M84,18.3c3.1,0,4.1-0.5,4.1-4.5
			c0-4.2-1.8-4.4-4.1-4.4h-2.1v8.9H84z"/>
		<path class="st3" d="M93.9,20.5V7.1h5.6c4.1,0,5.4,0.6,5.4,4.3c0,2.9-0.8,3.9-3.2,4.2l2.4,2.7c0.3,0.4,1.3,0.3,1.9,0.3l-0.2,1.9
			c-1.8,0.2-3,0.1-4.8-1.9l-2.5-2.9h-1.7v4.8H93.9z M102,11.4c0-1.9-0.6-2-2.4-2h-2.8v4.1h2.8c1.8,0,2.4-0.1,2.4-2V11.4z"/>
		<path class="st3" d="M114.5,6.9c3.8,0,6.9,0.9,6.9,6.9s-3.1,6.9-6.9,6.9c-3.8,0-6.9-0.9-6.9-6.9S110.7,6.9,114.5,6.9z M110.5,13.8
			c0,4.7,1.9,4.7,4,4.7c2.1,0,4,0,4-4.7c0-4.7-2-4.7-4-4.7C112.3,9.1,110.5,9.1,110.5,13.8z"/>
		<path class="st3" d="M124.3,20.5V7.1h5.6c4.1,0,5.4,0.6,5.4,4.3s-1.3,4.3-5.4,4.3h-2.7v4.8H124.3z M132.4,11.4c0-1.9-0.6-2-2.4-2
			h-2.8v4.1h2.8c1.8,0,2.4-0.1,2.4-2V11.4z"/>
		<path class="st3" d="M137.2,20.5V7.1h5.6c4.1,0,5.4,0.6,5.4,4.3c0,2.9-0.8,3.9-3.2,4.2l2.4,2.7c0.3,0.4,1.3,0.3,1.9,0.3l-0.2,1.9
			c-1.8,0.2-3,0.1-4.8-1.9l-2.5-2.9H140v4.8H137.2z M145.2,11.4c0-1.9-0.6-2-2.4-2H140v4.1h2.8c1.8,0,2.4-0.1,2.4-2V11.4z"/>
		<path class="st3" d="M157.7,6.9c3.8,0,6.9,0.9,6.9,6.9s-3.1,6.9-6.9,6.9c-3.8,0-6.9-0.9-6.9-6.9S153.9,6.9,157.7,6.9z M153.7,13.8
			c0,4.7,1.9,4.7,4,4.7c2.1,0,4,0,4-4.7c0-4.7-2-4.7-4-4.7C155.6,9.1,153.7,9.1,153.7,13.8z"/>
		<path class="st3" d="M166,18.5c1.8,0,2.4-0.1,2.4-2.1V7.1h2.8v9.2c0,3.7-1.3,4.3-5.4,4.3L166,18.5z"/>
		<path class="st3" d="M177,14.7c0.2,3.2,1.2,3.8,4.2,3.8c1.7,0,3.7-0.7,4.5-1l0.7,2.1c-1.2,0.5-3.6,1.1-5.6,1.1
			c-4.3,0-6.7-1-6.7-6.8c0-6,2.7-7.1,6.5-7.1c4.1,0,6.4,1.3,6.4,6.8v1.1H177z M184.1,12.5c-0.2-2.9-1.2-3.4-3.5-3.4
			c-2,0-3.5,0.2-3.6,3.4H184.1z"/>
		<path class="st3" d="M201.2,19.9c-1.2,0.5-3.1,0.9-5.1,0.9c-4.2,0-7-1.1-7-7c0-5.9,2.7-7,7-7c2,0,3.7,0.3,4.8,0.8l-0.7,2.1
			c-0.8-0.2-2.3-0.7-4.1-0.7c-2.3,0-4.1,0.4-4.1,4.7c0,4.4,1.8,4.7,4.1,4.7c1.7,0,3.5-0.6,4.3-0.8L201.2,19.9z"/>
		<path class="st3" d="M206.3,20.5V9.4h-4.2l0.2-2.2h11.4l-0.2,2.2h-4.3v11.1H206.3z"/>
	</g>
	<g>
		<path class="st3" d="M54.8,27.2V31c0,1.2-0.8,1.6-1.8,1.6c-0.5,0-1-0.1-1.4-0.3v-0.8c0.3,0.2,0.8,0.3,1.2,0.3
			c0.6,0,1.1-0.2,1.1-0.9v-2.9h-1.5v-0.8H54.8z"/>
		<path class="st3" d="M62.2,27.2c1.9,0,2.8,1.4,2.8,2.8c0,1.4-0.9,2.8-2.8,2.8c-1.9,0-2.8-1.4-2.8-2.8
			C59.4,28.5,60.3,27.2,62.2,27.2z M62.2,28c-1.3,0-1.9,0.9-1.9,2c0,1,0.6,2,1.9,2c1.3,0,1.9-0.9,1.9-2C64.1,28.9,63.5,28,62.2,28z"
			/>
		<path class="st3" d="M70.5,27.2v5.3h-0.9v-5.3H70.5z"/>
		<path class="st3" d="M75.4,32.6v-5.3h0.8l2.9,3.9c0-0.2,0-0.4,0-0.6v-3.3H80v5.3h-0.8l-2.9-3.9c0,0.2,0,0.4,0,0.6v3.3H75.4z"/>
		<path class="st3" d="M88.8,27.2v0.8h-1.8v4.5h-0.9v-4.5h-1.8v-0.8H88.8z"/>
		<path class="st3" d="M100.3,27.2c0.6,0,1.2,0.2,1.7,0.4v0.8c-0.4-0.3-1-0.4-1.6-0.4c-0.6,0-1.1,0.2-1.1,0.6c0,1.2,3.1,0.7,3.1,2.6
			c0,1.1-1,1.5-2,1.5c-0.7,0-1.4-0.2-1.9-0.5v-0.9c0.6,0.4,1.2,0.5,1.8,0.5c0.7,0,1.2-0.2,1.2-0.7c0-1.2-3.1-0.7-3.1-2.6
			C98.4,27.6,99.3,27.2,100.3,27.2z"/>
		<path class="st3" d="M110.8,27.2v0.8H109v4.5h-0.9v-4.5h-1.8v-0.8H110.8z"/>
		<path class="st3" d="M117.7,27.2c1.9,0,2.8,1.4,2.8,2.8c0,1.4-0.9,2.8-2.8,2.8c-1.9,0-2.8-1.4-2.8-2.8
			C114.9,28.5,115.8,27.2,117.7,27.2z M117.7,28c-1.3,0-1.9,0.9-1.9,2c0,1,0.6,2,1.9,2c1.3,0,1.9-0.9,1.9-2
			C119.6,28.9,119,28,117.7,28z"/>
		<path class="st3" d="M127.6,27.2c0.5,0,1.1,0.1,1.5,0.4v0.8c-0.4-0.3-0.9-0.4-1.4-0.4c-1,0-2.1,0.6-2.1,2c0,1.3,1.1,1.9,2.1,1.9
			c0.5,0,1-0.1,1.4-0.4v0.9c-0.4,0.2-1,0.4-1.5,0.4c-1.4,0-2.8-0.9-2.8-2.7C124.8,28.1,126.2,27.2,127.6,27.2z"/>
		<path class="st3" d="M133.8,32.6v-5.3h0.9v2.2h1.1l1.5-2.2h1l-1.8,2.6l1.9,2.7h-1l-1.6-2.3h-1.1v2.3H133.8z"/>
		<path class="st3" d="M150.6,27.2c0.5,0,1.1,0.1,1.5,0.4v0.8c-0.4-0.3-0.9-0.4-1.4-0.4c-1,0-2.1,0.6-2.1,2c0,1.3,1.1,1.9,2.1,1.9
			c0.5,0,1-0.1,1.4-0.4v0.9c-0.4,0.2-1,0.4-1.5,0.4c-1.4,0-2.8-0.9-2.8-2.7C147.8,28.1,149.2,27.2,150.6,27.2z"/>
		<path class="st3" d="M159.3,27.2c1.9,0,2.8,1.4,2.8,2.8c0,1.4-0.9,2.8-2.8,2.8c-1.9,0-2.8-1.4-2.8-2.8
			C156.4,28.5,157.4,27.2,159.3,27.2z M159.3,28c-1.3,0-1.9,0.9-1.9,2c0,1,0.6,2,1.9,2c1.3,0,1.9-0.9,1.9-2
			C161.2,28.9,160.6,28,159.3,28z"/>
		<path class="st3" d="M172.3,27.2v5.3h-0.9v-3.7l-1.7,2.5h-0.5l-1.7-2.5v3.7h-0.9v-5.3h0.8l2,3.1l2-3.1H172.3z"/>
		<path class="st3" d="M179.2,27.2c1.3,0,2.3,0.4,2.3,1.8s-1,1.8-2.3,1.8h-1v1.8h-0.9v-5.3H179.2z M179.2,28h-1.1V30h1.1
			c0.7,0,1.4-0.2,1.4-1C180.6,28.2,180,28,179.2,28z"/>
		<path class="st3" d="M185.4,32.6l2.3-5.3h1l2.3,5.3H190l-0.5-1.2h-2.7l-0.5,1.2H185.4z M187.1,30.7h2.1l-0.9-2.3
			c0-0.1-0.1-0.2-0.1-0.3c0,0.1-0.1,0.2-0.1,0.3L187.1,30.7z"/>
		<path class="st3" d="M195.3,32.6v-5.3h0.8l2.9,3.9c0-0.2,0-0.4,0-0.6v-3.3h0.9v5.3H199l-2.9-3.9c0,0.2,0,0.4,0,0.6v3.3H195.3z"/>
		<path class="st3" d="M206.3,32.6v-2l-2.1-3.4h1l1.5,2.6l1.6-2.6h1l-2.1,3.4v2H206.3z"/>
	</g>
</g>
<g id="Layer_2">
</g>
</svg>
