<svg width="122" height="25" fill="none" xmlns="http://www.w3.org/2000/svg"><path d="M1.156 23.94c-.862 0-1.39-.814-1.054-1.532l2.921-7.469c.384-.957 1.677-.957 2.06-.048l3.592 8.33c.143.336-.144.72-.527.72H1.204M13.512 23.51 6.807 8.666a2.343 2.343 0 0 1 0-1.963l.575-1.197c.287-.574.862-.91 1.533-.91.67 0 1.293.384 1.532.958l7.854 17.38c.192.479-.191 1.005-.718 1.005h-3.305c-.383 0-.67-.191-.766-.43ZM23.186 23.461 16.29 8.955a2.453 2.453 0 0 1 0-2.011l.718-1.437c.287-.574.862-.91 1.533-.91.67 0 1.293.384 1.532.91l7.902 17.332c.24.527-.191 1.101-.814 1.101h-3.113c-.43 0-.718-.191-.862-.479ZM43.205 19.774c-.767.766-1.916 1.101-3.353 1.101-1.484 0-2.586-.24-3.4-.718-.814-.479-1.197-1.101-1.197-1.82v-.574c0-.814.335-1.82 1.053-2.298.67-.431 1.676-.67 3.017-.67h9.77V11.73c0-2.346-.766-3.83-2.299-5.122-1.532-1.293-3.83-1.963-6.896-1.963-2.682 0-5.172.574-7.519 1.771-.67.335-.766.766-.43 1.388l.622.958c.335.575.862.718 1.58.383 1.868-.862 3.592-1.293 5.22-1.293 1.629 0 2.874.335 3.736 1.006.862.67 1.293 1.388 1.293 2.92v.144H38.99c-2.634 0-4.693.479-6.13 1.484-1.437 1.005-2.155 2.73-2.155 4.357v.144c0 1.675.814 3.351 2.443 4.5 1.628 1.101 3.879 1.676 6.752 1.676 2.97 0 5.268-.623 6.849-1.915 1.101-.91 1.915-2.442 2.203-3.974a.578.578 0 0 0-.575-.67h-3.64a.622.622 0 0 0-.575.383c-.191.67-.383 1.292-.957 1.867ZM69.688 18.098c-.575-1.005-1.629-2.01-3.21-3.016l-1.34-1.15 2.538-1.723c1.15-.766 1.868-1.58 2.251-2.49.383-.91.575-2.058.575-3.447v-.67c0-.718-.383-1.053-1.102-1.053h-2.394c-.766 0-1.102.335-1.15 1.053v.287c0 .766-.047 1.341-.095 1.772-.048.43-.192.862-.431 1.197-.24.383-.48.67-.719.862-.24.239-.67.526-1.293.91l-1.58 1.005-1.58-1.006a12.543 12.543 0 0 1-1.294-.91 6.838 6.838 0 0 1-.718-.861 2.782 2.782 0 0 1-.431-1.197 16.335 16.335 0 0 1-.096-1.772v-.287c0-.718-.383-1.053-1.15-1.053h-2.394c-.766 0-1.101.335-1.101 1.053v.67c0 1.389.191 2.538.574 3.448.383.91 1.102 1.771 2.251 2.49l2.538 1.723-1.34 1.149c-1.58 1.005-2.635 2.01-3.21 3.016-.574 1.006-.861 2.25-.861 3.878v.958c0 .718.383 1.053 1.15 1.053h2.394c.766 0 1.15-.335 1.15-1.053v-.766c0-1.006.143-1.867.478-2.538.335-.718.91-1.34 1.724-1.867l1.964-1.532 1.963 1.532c.814.527 1.389 1.15 1.724 1.867.335.67.48 1.532.48 2.538v.766c0 .718.382 1.053 1.148 1.053h2.395c.766 0 1.102-.335 1.102-1.053v-.958c-.048-1.58-.336-2.872-.91-3.878Z" fill="#fff"/><path d="M90.52 6.703C89.18 5.219 87.264 4.5 84.726 4.5c-.67 0-1.82.144-2.443.24-.383.096-.623.383-.623.766v2.442c0 .478.431.861.91.766a7.951 7.951 0 0 1 1.054-.144c1.82 0 2.49.24 3.16 1.15.671.909 1.007 1.819 1.007 3.781v2.011c0 3.256-1.58 4.884-4.598 4.884-2.97 0-4.502-1.15-4.502-4.453V.862C78.595.287 78.261 0 77.59 0h-2.347c-.766 0-1.15.335-1.15 1.005V16.23c0 1.102.192 2.107.575 3.017.384.91.91 1.723 1.677 2.394.718.718 1.676 1.244 2.873 1.627 1.197.383 2.538.575 4.07.575 3.018 0 5.317-.718 6.85-2.107 1.58-1.436 2.346-3.255 2.346-5.506l.048-.047v-3.448c0-2.585-.67-4.596-2.012-6.032Z" fill="#FEBB08"/><path d="M99.955 7.516h-2.394c-.767 0-1.102.335-1.102 1.053v14.363c0 .718.383 1.053 1.102 1.053h2.394c.766 0 1.102-.335 1.102-1.053V8.57c.047-.67-.336-1.053-1.102-1.053Z" fill="#DC5224"/><path d="M104.792 8.425c0-.67.335-1.005 1.102-1.005h3.16V1.052c0-.67.383-1.005 1.102-1.005h2.394c.767 0 1.102.335 1.102 1.005v6.32h6.082c.766 0 1.102.335 1.149 1.006V10.1c0 .67-.383 1.006-1.149 1.053h-6.082v6.703c0 .862.287 1.532.91 2.011.622.431 1.341.67 2.251.67.814 0 1.724-.239 2.729-.622.671-.287 1.198-.144 1.533.43l.718 1.294c.383.622.24 1.1-.479 1.388-1.484.623-3.16.958-4.932.958-2.251 0-4.071-.527-5.412-1.58-1.341-1.054-1.964-2.49-1.964-4.31v-6.942h-3.16c-.767 0-1.102-.335-1.102-1.053V8.425h.048Z" fill="#1BA4D8"/><path d="m101.152 2.873-2.108 2.106a.437.437 0 0 1-.574 0l-2.06-2.106a.437.437 0 0 1 0-.575L98.519.192a.437.437 0 0 1 .574 0l2.108 2.106a.395.395 0 0 1-.048.575Z" fill="#DC5224"/></svg>