<?xml version="1.0" standalone="no"?>
<!DOCTYPE svg PUBLIC "-//W3C//DTD SVG 20010904//EN"
 "http://www.w3.org/TR/2001/REC-SVG-20010904/DTD/svg10.dtd">
<svg version="1.0" xmlns="http://www.w3.org/2000/svg"
 width="640.000000pt" height="640.000000pt" viewBox="0 0 640.000000 640.000000"
 preserveAspectRatio="xMidYMid meet">

<g transform="translate(0.000000,640.000000) scale(0.100000,-0.100000)"
fill="#000000" stroke="none">
<path d="M3517 4719 l6 -164 -49 43 c-49 44 -168 126 -197 138 -15 5 -17 -5
-17 -96 l0 -102 -30 5 c-72 15 -243 19 -345 8 -336 -35 -632 -170 -872 -395
-244 -230 -400 -529 -449 -860 -23 -157 -15 -391 19 -536 136 -573 567 -998
1140 -1122 137 -30 445 -32 580 -5 112 23 249 68 352 117 120 56 304 81 455
60 101 -13 240 -58 328 -105 53 -28 64 -31 69 -18 3 8 3 68 0 132 -15 272
-118 503 -316 712 -31 32 -55 59 -53 59 9 0 133 -89 168 -122 l42 -39 37 88
c135 323 148 695 34 1038 -36 107 -202 446 -294 595 -144 237 -386 534 -554
679 l-61 53 7 -163z m184 -277 l58 -103 -87 6 c-139 10 -136 8 -128 62 3 25
15 86 27 135 l21 90 25 -43 c14 -24 51 -90 84 -147z m-307 1 c61 -85 62 -81
-14 -108 l-40 -14 0 84 c0 46 -3 90 -6 99 -13 33 6 14 60 -61z m-158 -1 c16
-9 20 -23 22 -85 l3 -74 -50 -42 c-69 -58 -139 -149 -201 -261 -28 -52 -68
-112 -88 -132 -24 -25 -106 -74 -251 -149 -206 -106 -217 -110 -249 -99 -42
15 -70 5 -79 -28 -12 -44 -4 -63 54 -140 110 -144 237 -228 403 -268 99 -23
233 -76 276 -109 39 -30 74 -80 74 -107 0 -12 -11 -19 -37 -23 -21 -4 -76 -14
-123 -24 l-85 -17 155 -7 c314 -13 507 -55 710 -158 125 -62 207 -121 303
-216 175 -173 280 -364 321 -583 9 -45 16 -84 16 -86 0 -2 -31 10 -70 27 -164
69 -372 106 -548 95 -316 -18 -386 -19 -449 -3 -129 34 -265 119 -405 256 -49
46 -88 81 -88 77 0 -4 23 -42 51 -84 136 -203 306 -342 496 -406 l66 -22 -61
-17 c-193 -53 -444 -64 -635 -27 -571 111 -1007 558 -1102 1128 -26 152 -17
409 19 549 137 546 576 948 1131 1038 102 16 388 15 421 -3z m147 -497 c-32
-32 -34 -38 -28 -78 8 -55 -7 -69 -84 -78 -31 -3 -64 -9 -74 -14 -16 -7 -17
-4 -11 21 18 75 72 134 148 163 78 30 90 27 49 -14z m846 -194 c124 -247 165
-412 166 -666 0 -185 -12 -268 -63 -430 l-28 -89 -31 55 c-48 85 -144 200
-216 260 -36 29 -64 55 -62 58 9 8 173 -78 230 -122 40 -30 62 -41 66 -34 20
36 34 179 34 342 -1 147 -5 201 -24 295 -22 112 -84 319 -122 407 -35 82 -9
43 50 -76z m-1049 -326 c106 -20 203 -49 299 -86 81 -33 225 -109 217 -116 -2
-2 -17 2 -33 10 -15 8 -39 18 -53 21 -23 7 -23 6 5 -13 44 -30 203 -174 204
-185 1 -5 -5 -3 -12 3 -41 33 -374 197 -383 188 -3 -2 43 -56 101 -120 58 -64
105 -119 105 -121 0 -3 -24 6 -53 19 -84 37 -150 53 -265 66 -90 10 -114 16
-150 41 -73 50 -184 97 -292 124 -124 31 -211 71 -277 129 l-48 43 60 6 c33 4
69 9 80 11 54 10 416 -4 495 -20z"/>
<path d="M3333 2705 c-63 -17 -173 -71 -173 -85 0 -6 8 -10 18 -10 20 0 100
-48 119 -71 10 -12 -4 -14 -90 -14 -83 0 -114 -4 -164 -24 -35 -13 -63 -26
-63 -28 0 -3 11 -14 24 -24 40 -31 66 -98 66 -166 0 -60 1 -62 43 -98 108 -93
228 -155 331 -170 27 -4 125 -2 217 5 136 11 188 11 266 1 80 -10 222 -49 315
-86 16 -6 17 -3 12 26 -36 205 -126 372 -278 517 -87 83 -152 127 -269 183
-125 59 -258 75 -374 44z"/>
</g>
</svg>
